<?xml version="1.0" encoding="UTF-8" standalone="no"?><svg xmlns="http://www.w3.org/2000/svg" xmlns:xlink="http://www.w3.org/1999/xlink" contentScriptType="application/ecmascript" contentStyleType="text/css" height="469px" preserveAspectRatio="none" style="width:515px;height:469px;background:#FFFFFF;" version="1.1" viewBox="0 0 515 469" width="515px" zoomAndPan="magnify"><defs><filter height="300%" id="fj04he2zziwuu" width="300%" x="-1" y="-1"><feGaussianBlur result="blurOut" stdDeviation="2.0"/><feColorMatrix in="blurOut" result="blurOut2" type="matrix" values="0 0 0 0 0 0 0 0 0 0 0 0 0 0 0 0 0 0 .4 0"/><feOffset dx="4.0" dy="4.0" in="blurOut2" result="blurOut3"/><feBlend in="SourceGraphic" in2="blurOut3" mode="normal"/></filter></defs><g><line style="stroke:#A80036;stroke-width:1.0;stroke-dasharray:5.0,5.0;" x1="23" x2="23" y1="88.4883" y2="385.2832"/><line style="stroke:#A80036;stroke-width:1.0;stroke-dasharray:5.0,5.0;" x1="302" x2="302" y1="88.4883" y2="385.2832"/><text fill="#000000" font-family="sans-serif" font-size="14" lengthAdjust="spacing" textLength="31" x="5" y="85.5352">User</text><ellipse cx="23.5" cy="15" fill="#FEFECE" filter="url(#fj04he2zziwuu)" rx="8" ry="8" style="stroke:#A80036;stroke-width:2.0;"/><path d="M23.5,23 L23.5,50 M10.5,31 L36.5,31 M23.5,50 L10.5,65 M23.5,50 L36.5,65 " fill="none" filter="url(#fj04he2zziwuu)" style="stroke:#A80036;stroke-width:2.0;"/><text fill="#000000" font-family="sans-serif" font-size="14" lengthAdjust="spacing" textLength="31" x="5" y="397.8184">User</text><ellipse cx="23.5" cy="410.7715" fill="#FEFECE" filter="url(#fj04he2zziwuu)" rx="8" ry="8" style="stroke:#A80036;stroke-width:2.0;"/><path d="M23.5,418.7715 L23.5,445.7715 M10.5,426.7715 L36.5,426.7715 M23.5,445.7715 L10.5,460.7715 M23.5,445.7715 L36.5,460.7715 " fill="none" filter="url(#fj04he2zziwuu)" style="stroke:#A80036;stroke-width:2.0;"/><rect fill="#FEFECE" filter="url(#fj04he2zziwuu)" height="30.4883" style="stroke:#A80036;stroke-width:1.5;" width="129" x="236" y="53"/><text fill="#000000" font-family="sans-serif" font-size="14" lengthAdjust="spacing" textLength="115" x="243" y="73.5352">Identity Manager</text><rect fill="#FEFECE" filter="url(#fj04he2zziwuu)" height="30.4883" style="stroke:#A80036;stroke-width:1.5;" width="129" x="236" y="384.2832"/><text fill="#000000" font-family="sans-serif" font-size="14" lengthAdjust="spacing" textLength="115" x="243" y="404.8184">Identity Manager</text><polygon fill="#A80036" points="290.5,115.7988,300.5,119.7988,290.5,123.7988,294.5,119.7988" style="stroke:#A80036;stroke-width:1.0;"/><line style="stroke:#A80036;stroke-width:1.0;" x1="23.5" x2="296.5" y1="119.7988" y2="119.7988"/><text fill="#000000" font-family="sans-serif" font-size="13" lengthAdjust="spacing" textLength="92" x="30.5" y="115.0566">Create Identity</text><polygon fill="#A80036" points="34.5,145.1094,24.5,149.1094,34.5,153.1094,30.5,149.1094" style="stroke:#A80036;stroke-width:1.0;"/><line style="stroke:#A80036;stroke-width:1.0;" x1="28.5" x2="301.5" y1="149.1094" y2="149.1094"/><text fill="#000000" font-family="sans-serif" font-size="13" lengthAdjust="spacing" textLength="166" x="40.5" y="144.3672">Options for Identity create</text><polygon fill="#A80036" points="290.5,174.4199,300.5,178.4199,290.5,182.4199,294.5,178.4199" style="stroke:#A80036;stroke-width:1.0;"/><line style="stroke:#A80036;stroke-width:1.0;" x1="23.5" x2="296.5" y1="178.4199" y2="178.4199"/><text fill="#000000" font-family="sans-serif" font-size="13" lengthAdjust="spacing" textLength="255" x="30.5" y="173.6777">Hierarchical deterministic key derivation</text><polygon fill="#A80036" points="34.5,203.7305,24.5,207.7305,34.5,211.7305,30.5,207.7305" style="stroke:#A80036;stroke-width:1.0;"/><line style="stroke:#A80036;stroke-width:1.0;" x1="28.5" x2="301.5" y1="207.7305" y2="207.7305"/><text fill="#000000" font-family="sans-serif" font-size="13" lengthAdjust="spacing" textLength="29" x="40.5" y="202.9883">seed</text><polygon fill="#A80036" points="34.5,233.041,24.5,237.041,34.5,241.041,30.5,237.041" style="stroke:#A80036;stroke-width:1.0;"/><line style="stroke:#A80036;stroke-width:1.0;" x1="28.5" x2="301.5" y1="237.041" y2="237.041"/><text fill="#000000" font-family="sans-serif" font-size="13" lengthAdjust="spacing" textLength="140" x="40.5" y="232.2988">requests a description</text><polygon fill="#A80036" points="290.5,262.3516,300.5,266.3516,290.5,270.3516,294.5,266.3516" style="stroke:#A80036;stroke-width:1.0;"/><line style="stroke:#A80036;stroke-width:1.0;" x1="23.5" x2="296.5" y1="266.3516" y2="266.3516"/><text fill="#000000" font-family="sans-serif" font-size="13" lengthAdjust="spacing" textLength="129" x="30.5" y="261.6094">provides description</text><polygon fill="#A80036" points="34.5,291.6621,24.5,295.6621,34.5,299.6621,30.5,295.6621" style="stroke:#A80036;stroke-width:1.0;"/><line style="stroke:#A80036;stroke-width:1.0;" x1="28.5" x2="301.5" y1="295.6621" y2="295.6621"/><text fill="#000000" font-family="sans-serif" font-size="13" lengthAdjust="spacing" textLength="111" x="40.5" y="290.9199">request password</text><polygon fill="#A80036" points="290.5,320.9727,300.5,324.9727,290.5,328.9727,294.5,324.9727" style="stroke:#A80036;stroke-width:1.0;"/><line style="stroke:#A80036;stroke-width:1.0;" x1="23.5" x2="296.5" y1="324.9727" y2="324.9727"/><text fill="#000000" font-family="sans-serif" font-size="13" lengthAdjust="spacing" textLength="118" x="30.5" y="320.2305">provides password</text><line style="stroke:#A80036;stroke-width:1.0;" x1="302.5" x2="344.5" y1="354.2832" y2="354.2832"/><line style="stroke:#A80036;stroke-width:1.0;" x1="344.5" x2="344.5" y1="354.2832" y2="367.2832"/><line style="stroke:#A80036;stroke-width:1.0;" x1="303.5" x2="344.5" y1="367.2832" y2="367.2832"/><polygon fill="#A80036" points="313.5,363.2832,303.5,367.2832,313.5,371.2832,309.5,367.2832" style="stroke:#A80036;stroke-width:1.0;"/><text fill="#000000" font-family="sans-serif" font-size="13" lengthAdjust="spacing" textLength="199" x="309.5" y="349.541">create document and certificate</text><!--MD5=[7c741d74d87099881dad2b5c1e201331]
@startuml

actor "User" as user
participant "Identity Manager" as im

user -> im: Create Identity
im -> user: Options for Identity create
user -> im: Hierarchical deterministic key derivation
im -> user: seed
im -> user: requests a description
user -> im: provides description
im -> user: request password
user -> im: provides password
im -> im: create document and certificate

@enduml

PlantUML version 1.2021.16(Wed Dec 08 17:25:22 GMT 2021)
(GPL source distribution)
Java Runtime: OpenJDK Runtime Environment
JVM: OpenJDK 64-Bit Server VM
Default Encoding: UTF-8
Language: en
Country: GB
--></g></svg>