<?xml version="1.0" encoding="UTF-8" standalone="no"?><svg xmlns="http://www.w3.org/2000/svg" xmlns:xlink="http://www.w3.org/1999/xlink" contentScriptType="application/ecmascript" contentStyleType="text/css" height="368px" preserveAspectRatio="none" style="width:363px;height:368px;background:#FFFFFF;" version="1.1" viewBox="0 0 363 368" width="363px" zoomAndPan="magnify"><defs><filter height="300%" id="fnsfiae1ehwz1" width="300%" x="-1" y="-1"><feGaussianBlur result="blurOut" stdDeviation="2.0"/><feColorMatrix in="blurOut" result="blurOut2" type="matrix" values="0 0 0 0 0 0 0 0 0 0 0 0 0 0 0 0 0 0 .4 0"/><feOffset dx="4.0" dy="4.0" in="blurOut2" result="blurOut3"/><feBlend in="SourceGraphic" in2="blurOut3" mode="normal"/></filter></defs><g><line style="stroke:#A80036;stroke-width:1.0;stroke-dasharray:5.0,5.0;" x1="23" x2="23" y1="88.4883" y2="284.3516"/><line style="stroke:#A80036;stroke-width:1.0;stroke-dasharray:5.0,5.0;" x1="179" x2="179" y1="88.4883" y2="284.3516"/><line style="stroke:#A80036;stroke-width:1.0;stroke-dasharray:5.0,5.0;" x1="315.5" x2="315.5" y1="88.4883" y2="284.3516"/><text fill="#000000" font-family="sans-serif" font-size="14" lengthAdjust="spacing" textLength="31" x="5" y="85.5352">User</text><ellipse cx="23.5" cy="15" fill="#FEFECE" filter="url(#fnsfiae1ehwz1)" rx="8" ry="8" style="stroke:#A80036;stroke-width:2.0;"/><path d="M23.5,23 L23.5,50 M10.5,31 L36.5,31 M23.5,50 L10.5,65 M23.5,50 L36.5,65 " fill="none" filter="url(#fnsfiae1ehwz1)" style="stroke:#A80036;stroke-width:2.0;"/><text fill="#000000" font-family="sans-serif" font-size="14" lengthAdjust="spacing" textLength="31" x="5" y="296.8867">User</text><ellipse cx="23.5" cy="309.8398" fill="#FEFECE" filter="url(#fnsfiae1ehwz1)" rx="8" ry="8" style="stroke:#A80036;stroke-width:2.0;"/><path d="M23.5,317.8398 L23.5,344.8398 M10.5,325.8398 L36.5,325.8398 M23.5,344.8398 L10.5,359.8398 M23.5,344.8398 L36.5,359.8398 " fill="none" filter="url(#fnsfiae1ehwz1)" style="stroke:#A80036;stroke-width:2.0;"/><rect fill="#FEFECE" filter="url(#fnsfiae1ehwz1)" height="30.4883" style="stroke:#A80036;stroke-width:1.5;" width="129" x="113" y="53"/><text fill="#000000" font-family="sans-serif" font-size="14" lengthAdjust="spacing" textLength="115" x="120" y="73.5352">Identity Manager</text><rect fill="#FEFECE" filter="url(#fnsfiae1ehwz1)" height="30.4883" style="stroke:#A80036;stroke-width:1.5;" width="129" x="113" y="283.3516"/><text fill="#000000" font-family="sans-serif" font-size="14" lengthAdjust="spacing" textLength="115" x="120" y="303.8867">Identity Manager</text><rect fill="#FEFECE" filter="url(#fnsfiae1ehwz1)" height="30.4883" style="stroke:#A80036;stroke-width:1.5;" width="72" x="277.5" y="53"/><text fill="#000000" font-family="sans-serif" font-size="14" lengthAdjust="spacing" textLength="58" x="284.5" y="73.5352">Platform</text><rect fill="#FEFECE" filter="url(#fnsfiae1ehwz1)" height="30.4883" style="stroke:#A80036;stroke-width:1.5;" width="72" x="277.5" y="283.3516"/><text fill="#000000" font-family="sans-serif" font-size="14" lengthAdjust="spacing" textLength="58" x="284.5" y="303.8867">Platform</text><polygon fill="#A80036" points="34.5,115.7988,24.5,119.7988,34.5,123.7988,30.5,119.7988" style="stroke:#A80036;stroke-width:1.0;"/><line style="stroke:#A80036;stroke-width:1.0;" x1="28.5" x2="178.5" y1="119.7988" y2="119.7988"/><text fill="#000000" font-family="sans-serif" font-size="13" lengthAdjust="spacing" textLength="132" x="40.5" y="115.0566">Get Public Certificate</text><polygon fill="#A80036" points="34.5,145.1094,24.5,149.1094,34.5,153.1094,30.5,149.1094" style="stroke:#A80036;stroke-width:1.0;"/><polygon fill="#A80036" points="303.5,145.1094,313.5,149.1094,303.5,153.1094,307.5,149.1094" style="stroke:#A80036;stroke-width:1.0;"/><line style="stroke:#A80036;stroke-width:1.0;stroke-dasharray:2.0,2.0;" x1="28.5" x2="309.5" y1="149.1094" y2="149.1094"/><text fill="#000000" font-family="sans-serif" font-size="13" lengthAdjust="spacing" textLength="137" x="40.5" y="144.3672">Normal Login Process</text><polygon fill="#A80036" points="303.5,174.4199,313.5,178.4199,303.5,182.4199,307.5,178.4199" style="stroke:#A80036;stroke-width:1.0;"/><line style="stroke:#A80036;stroke-width:1.0;" x1="23.5" x2="309.5" y1="178.4199" y2="178.4199"/><text fill="#000000" font-family="sans-serif" font-size="13" lengthAdjust="spacing" textLength="157" x="30.5" y="173.6777">Provide Public Certificate</text><polygon fill="#A80036" points="34.5,203.7305,24.5,207.7305,34.5,211.7305,30.5,207.7305" style="stroke:#A80036;stroke-width:1.0;"/><line style="stroke:#A80036;stroke-width:1.0;" x1="28.5" x2="314.5" y1="207.7305" y2="207.7305"/><text fill="#000000" font-family="sans-serif" font-size="13" lengthAdjust="spacing" textLength="121" x="40.5" y="202.9883">Show QR Challenge</text><polygon fill="#A80036" points="167.5,233.041,177.5,237.041,167.5,241.041,171.5,237.041" style="stroke:#A80036;stroke-width:1.0;"/><line style="stroke:#A80036;stroke-width:1.0;" x1="23.5" x2="173.5" y1="237.041" y2="237.041"/><text fill="#000000" font-family="sans-serif" font-size="13" lengthAdjust="spacing" textLength="117" x="30.5" y="232.2988">Scan QR Challenge</text><polygon fill="#A80036" points="303.5,262.3516,313.5,266.3516,303.5,270.3516,307.5,266.3516" style="stroke:#A80036;stroke-width:1.0;"/><line style="stroke:#A80036;stroke-width:1.0;" x1="179.5" x2="309.5" y1="266.3516" y2="266.3516"/><text fill="#000000" font-family="sans-serif" font-size="13" lengthAdjust="spacing" textLength="112" x="186.5" y="261.6094">Answer Challenge</text><!--MD5=[4dc175c1332c0bf3986357dbacfbe192]
@startuml

actor "User" as user
participant "Identity Manager" as im
participant Platform as plat

im -> user: Get Public Certificate
user <- -> plat: Normal Login Process
user -> plat: Provide Public Certificate
plat -> user: Show QR Challenge
user -> im: Scan QR Challenge
im -> plat: Answer Challenge

@enduml

PlantUML version 1.2021.16(Wed Dec 08 17:25:22 GMT 2021)
(GPL source distribution)
Java Runtime: OpenJDK Runtime Environment
JVM: OpenJDK 64-Bit Server VM
Default Encoding: UTF-8
Language: en
Country: GB
--></g></svg>