<?xml version="1.0" encoding="UTF-8" standalone="no"?><svg xmlns="http://www.w3.org/2000/svg" xmlns:xlink="http://www.w3.org/1999/xlink" contentScriptType="application/ecmascript" contentStyleType="text/css" height="339px" preserveAspectRatio="none" style="width:358px;height:339px;background:#FFFFFF;" version="1.1" viewBox="0 0 358 339" width="358px" zoomAndPan="magnify"><defs><filter height="300%" id="f1590ulfrp36kb" width="300%" x="-1" y="-1"><feGaussianBlur result="blurOut" stdDeviation="2.0"/><feColorMatrix in="blurOut" result="blurOut2" type="matrix" values="0 0 0 0 0 0 0 0 0 0 0 0 0 0 0 0 0 0 .4 0"/><feOffset dx="4.0" dy="4.0" in="blurOut2" result="blurOut3"/><feBlend in="SourceGraphic" in2="blurOut3" mode="normal"/></filter></defs><g><line style="stroke:#A80036;stroke-width:1.0;stroke-dasharray:5.0,5.0;" x1="23" x2="23" y1="88.4883" y2="255.041"/><line style="stroke:#A80036;stroke-width:1.0;stroke-dasharray:5.0,5.0;" x1="179" x2="179" y1="88.4883" y2="255.041"/><line style="stroke:#A80036;stroke-width:1.0;stroke-dasharray:5.0,5.0;" x1="315.5" x2="315.5" y1="88.4883" y2="255.041"/><text fill="#000000" font-family="sans-serif" font-size="14" lengthAdjust="spacing" textLength="31" x="5" y="85.5352">User</text><ellipse cx="23.5" cy="15" fill="#FEFECE" filter="url(#f1590ulfrp36kb)" rx="8" ry="8" style="stroke:#A80036;stroke-width:2.0;"/><path d="M23.5,23 L23.5,50 M10.5,31 L36.5,31 M23.5,50 L10.5,65 M23.5,50 L36.5,65 " fill="none" filter="url(#f1590ulfrp36kb)" style="stroke:#A80036;stroke-width:2.0;"/><text fill="#000000" font-family="sans-serif" font-size="14" lengthAdjust="spacing" textLength="31" x="5" y="267.5762">User</text><ellipse cx="23.5" cy="280.5293" fill="#FEFECE" filter="url(#f1590ulfrp36kb)" rx="8" ry="8" style="stroke:#A80036;stroke-width:2.0;"/><path d="M23.5,288.5293 L23.5,315.5293 M10.5,296.5293 L36.5,296.5293 M23.5,315.5293 L10.5,330.5293 M23.5,315.5293 L36.5,330.5293 " fill="none" filter="url(#f1590ulfrp36kb)" style="stroke:#A80036;stroke-width:2.0;"/><rect fill="#FEFECE" filter="url(#f1590ulfrp36kb)" height="30.4883" style="stroke:#A80036;stroke-width:1.5;" width="129" x="113" y="53"/><text fill="#000000" font-family="sans-serif" font-size="14" lengthAdjust="spacing" textLength="115" x="120" y="73.5352">Identity Manager</text><rect fill="#FEFECE" filter="url(#f1590ulfrp36kb)" height="30.4883" style="stroke:#A80036;stroke-width:1.5;" width="129" x="113" y="254.041"/><text fill="#000000" font-family="sans-serif" font-size="14" lengthAdjust="spacing" textLength="115" x="120" y="274.5762">Identity Manager</text><rect fill="#FEFECE" filter="url(#f1590ulfrp36kb)" height="30.4883" style="stroke:#A80036;stroke-width:1.5;" width="62" x="282.5" y="53"/><text fill="#000000" font-family="sans-serif" font-size="14" lengthAdjust="spacing" textLength="48" x="289.5" y="73.5352">Service</text><rect fill="#FEFECE" filter="url(#f1590ulfrp36kb)" height="30.4883" style="stroke:#A80036;stroke-width:1.5;" width="62" x="282.5" y="254.041"/><text fill="#000000" font-family="sans-serif" font-size="14" lengthAdjust="spacing" textLength="48" x="289.5" y="274.5762">Service</text><polygon fill="#A80036" points="34.5,115.7988,24.5,119.7988,34.5,123.7988,30.5,119.7988" style="stroke:#A80036;stroke-width:1.0;"/><line style="stroke:#A80036;stroke-width:1.0;" x1="28.5" x2="178.5" y1="119.7988" y2="119.7988"/><text fill="#000000" font-family="sans-serif" font-size="13" lengthAdjust="spacing" textLength="132" x="40.5" y="115.0566">Get Public Certificate</text><polygon fill="#A80036" points="303.5,145.1094,313.5,149.1094,303.5,153.1094,307.5,149.1094" style="stroke:#A80036;stroke-width:1.0;"/><line style="stroke:#A80036;stroke-width:1.0;" x1="23.5" x2="309.5" y1="149.1094" y2="149.1094"/><text fill="#000000" font-family="sans-serif" font-size="13" lengthAdjust="spacing" textLength="157" x="30.5" y="144.3672">Provide Public Certificate</text><polygon fill="#A80036" points="34.5,174.4199,24.5,178.4199,34.5,182.4199,30.5,178.4199" style="stroke:#A80036;stroke-width:1.0;"/><line style="stroke:#A80036;stroke-width:1.0;" x1="28.5" x2="314.5" y1="178.4199" y2="178.4199"/><text fill="#000000" font-family="sans-serif" font-size="13" lengthAdjust="spacing" textLength="121" x="40.5" y="173.6777">Show QR Challenge</text><polygon fill="#A80036" points="167.5,203.7305,177.5,207.7305,167.5,211.7305,171.5,207.7305" style="stroke:#A80036;stroke-width:1.0;"/><line style="stroke:#A80036;stroke-width:1.0;" x1="23.5" x2="173.5" y1="207.7305" y2="207.7305"/><text fill="#000000" font-family="sans-serif" font-size="13" lengthAdjust="spacing" textLength="117" x="30.5" y="202.9883">Scan QR Challenge</text><polygon fill="#A80036" points="303.5,233.041,313.5,237.041,303.5,241.041,307.5,237.041" style="stroke:#A80036;stroke-width:1.0;"/><line style="stroke:#A80036;stroke-width:1.0;" x1="179.5" x2="309.5" y1="237.041" y2="237.041"/><text fill="#000000" font-family="sans-serif" font-size="13" lengthAdjust="spacing" textLength="112" x="186.5" y="232.2988">Answer Challenge</text><!--MD5=[b1b97464e8b7cd76ac4de1939f1556aa]
@startuml

actor "User" as user
participant "Identity Manager" as im
participant Service as serv

im -> user: Get Public Certificate
user -> serv: Provide Public Certificate
serv -> user: Show QR Challenge
user -> im: Scan QR Challenge
im -> serv: Answer Challenge

@enduml

PlantUML version 1.2021.16(Wed Dec 08 17:25:22 GMT 2021)
(GPL source distribution)
Java Runtime: OpenJDK Runtime Environment
JVM: OpenJDK 64-Bit Server VM
Default Encoding: UTF-8
Language: en
Country: GB
--></g></svg>