<?xml version="1.0" encoding="UTF-8" standalone="no"?><svg xmlns="http://www.w3.org/2000/svg" xmlns:xlink="http://www.w3.org/1999/xlink" contentScriptType="application/ecmascript" contentStyleType="text/css" height="368px" preserveAspectRatio="none" style="width:503px;height:368px;background:#FFFFFF;" version="1.1" viewBox="0 0 503 368" width="503px" zoomAndPan="magnify"><defs><filter height="300%" id="fa2r5iyrunucc" width="300%" x="-1" y="-1"><feGaussianBlur result="blurOut" stdDeviation="2.0"/><feColorMatrix in="blurOut" result="blurOut2" type="matrix" values="0 0 0 0 0 0 0 0 0 0 0 0 0 0 0 0 0 0 .4 0"/><feOffset dx="4.0" dy="4.0" in="blurOut2" result="blurOut3"/><feBlend in="SourceGraphic" in2="blurOut3" mode="normal"/></filter></defs><g><line style="stroke:#A80036;stroke-width:1.0;stroke-dasharray:5.0,5.0;" x1="23" x2="23" y1="88.4883" y2="284.3516"/><line style="stroke:#A80036;stroke-width:1.0;stroke-dasharray:5.0,5.0;" x1="164" x2="164" y1="88.4883" y2="284.3516"/><line style="stroke:#A80036;stroke-width:1.0;stroke-dasharray:5.0,5.0;" x1="279" x2="279" y1="88.4883" y2="284.3516"/><line style="stroke:#A80036;stroke-width:1.0;stroke-dasharray:5.0,5.0;" x1="460" x2="460" y1="88.4883" y2="284.3516"/><text fill="#000000" font-family="sans-serif" font-size="14" lengthAdjust="spacing" textLength="31" x="5" y="85.5352">User</text><ellipse cx="23.5" cy="15" fill="#FEFECE" filter="url(#fa2r5iyrunucc)" rx="8" ry="8" style="stroke:#A80036;stroke-width:2.0;"/><path d="M23.5,23 L23.5,50 M10.5,31 L36.5,31 M23.5,50 L10.5,65 M23.5,50 L36.5,65 " fill="none" filter="url(#fa2r5iyrunucc)" style="stroke:#A80036;stroke-width:2.0;"/><text fill="#000000" font-family="sans-serif" font-size="14" lengthAdjust="spacing" textLength="31" x="5" y="296.8867">User</text><ellipse cx="23.5" cy="309.8398" fill="#FEFECE" filter="url(#fa2r5iyrunucc)" rx="8" ry="8" style="stroke:#A80036;stroke-width:2.0;"/><path d="M23.5,317.8398 L23.5,344.8398 M10.5,325.8398 L36.5,325.8398 M23.5,344.8398 L10.5,359.8398 M23.5,344.8398 L36.5,359.8398 " fill="none" filter="url(#fa2r5iyrunucc)" style="stroke:#A80036;stroke-width:2.0;"/><rect fill="#FEFECE" filter="url(#fa2r5iyrunucc)" height="30.4883" style="stroke:#A80036;stroke-width:1.5;" width="129" x="98" y="53"/><text fill="#000000" font-family="sans-serif" font-size="14" lengthAdjust="spacing" textLength="115" x="105" y="73.5352">Identity Manager</text><rect fill="#FEFECE" filter="url(#fa2r5iyrunucc)" height="30.4883" style="stroke:#A80036;stroke-width:1.5;" width="129" x="98" y="283.3516"/><text fill="#000000" font-family="sans-serif" font-size="14" lengthAdjust="spacing" textLength="115" x="105" y="303.8867">Identity Manager</text><rect fill="#FEFECE" filter="url(#fa2r5iyrunucc)" height="30.4883" style="stroke:#A80036;stroke-width:1.5;" width="72" x="241" y="53"/><text fill="#000000" font-family="sans-serif" font-size="14" lengthAdjust="spacing" textLength="58" x="248" y="73.5352">Platform</text><rect fill="#FEFECE" filter="url(#fa2r5iyrunucc)" height="30.4883" style="stroke:#A80036;stroke-width:1.5;" width="72" x="241" y="283.3516"/><text fill="#000000" font-family="sans-serif" font-size="14" lengthAdjust="spacing" textLength="58" x="248" y="303.8867">Platform</text><rect fill="#FEFECE" filter="url(#fa2r5iyrunucc)" height="30.4883" style="stroke:#A80036;stroke-width:1.5;" width="62" x="427" y="53"/><text fill="#000000" font-family="sans-serif" font-size="14" lengthAdjust="spacing" textLength="48" x="434" y="73.5352">Service</text><rect fill="#FEFECE" filter="url(#fa2r5iyrunucc)" height="30.4883" style="stroke:#A80036;stroke-width:1.5;" width="62" x="427" y="283.3516"/><text fill="#000000" font-family="sans-serif" font-size="14" lengthAdjust="spacing" textLength="48" x="434" y="303.8867">Service</text><polygon fill="#A80036" points="267,115.7988,277,119.7988,267,123.7988,271,119.7988" style="stroke:#A80036;stroke-width:1.0;"/><line style="stroke:#A80036;stroke-width:1.0;" x1="23.5" x2="273" y1="119.7988" y2="119.7988"/><text fill="#000000" font-family="sans-serif" font-size="13" lengthAdjust="spacing" textLength="161" x="30.5" y="115.0566">Request access to Service</text><polygon fill="#A80036" points="290,145.1094,280,149.1094,290,153.1094,286,149.1094" style="stroke:#A80036;stroke-width:1.0;"/><polygon fill="#A80036" points="448,145.1094,458,149.1094,448,153.1094,452,149.1094" style="stroke:#A80036;stroke-width:1.0;"/><line style="stroke:#A80036;stroke-width:1.0;stroke-dasharray:2.0,2.0;" x1="284" x2="454" y1="149.1094" y2="149.1094"/><text fill="#000000" font-family="sans-serif" font-size="13" lengthAdjust="spacing" textLength="70" x="296" y="144.3672">Handshake</text><polygon fill="#A80036" points="448,174.4199,458,178.4199,448,182.4199,452,178.4199" style="stroke:#A80036;stroke-width:1.0;"/><line style="stroke:#A80036;stroke-width:1.0;" x1="279" x2="454" y1="178.4199" y2="178.4199"/><text fill="#000000" font-family="sans-serif" font-size="13" lengthAdjust="spacing" textLength="157" x="286" y="173.6777">Provide Public Certificate</text><polygon fill="#A80036" points="34.5,203.7305,24.5,207.7305,34.5,211.7305,30.5,207.7305" style="stroke:#A80036;stroke-width:1.0;"/><line style="stroke:#A80036;stroke-width:1.0;" x1="28.5" x2="459" y1="207.7305" y2="207.7305"/><text fill="#000000" font-family="sans-serif" font-size="13" lengthAdjust="spacing" textLength="121" x="40.5" y="202.9883">Show QR Challenge</text><polygon fill="#A80036" points="152.5,233.041,162.5,237.041,152.5,241.041,156.5,237.041" style="stroke:#A80036;stroke-width:1.0;"/><line style="stroke:#A80036;stroke-width:1.0;" x1="23.5" x2="158.5" y1="237.041" y2="237.041"/><text fill="#000000" font-family="sans-serif" font-size="13" lengthAdjust="spacing" textLength="117" x="30.5" y="232.2988">Scan QR Challenge</text><polygon fill="#A80036" points="448,262.3516,458,266.3516,448,270.3516,452,266.3516" style="stroke:#A80036;stroke-width:1.0;"/><line style="stroke:#A80036;stroke-width:1.0;" x1="164.5" x2="454" y1="266.3516" y2="266.3516"/><text fill="#000000" font-family="sans-serif" font-size="13" lengthAdjust="spacing" textLength="112" x="171.5" y="261.6094">Answer Challenge</text><!--MD5=[91ba3c7213a3bd2c923915f496345e49]
@startuml

actor "User" as user
participant "Identity Manager" as im
participant Platform as plat
participant Service as serv

user -> plat: Request access to Service
plat <- -> serv: Handshake
plat -> serv: Provide Public Certificate
serv -> user: Show QR Challenge
user -> im: Scan QR Challenge
im -> serv: Answer Challenge

@enduml

PlantUML version 1.2021.16(Wed Dec 08 17:25:22 GMT 2021)
(GPL source distribution)
Java Runtime: OpenJDK Runtime Environment
JVM: OpenJDK 64-Bit Server VM
Default Encoding: UTF-8
Language: en
Country: GB
--></g></svg>