<?xml version="1.0" encoding="UTF-8" standalone="no"?><svg xmlns="http://www.w3.org/2000/svg" xmlns:xlink="http://www.w3.org/1999/xlink" contentScriptType="application/ecmascript" contentStyleType="text/css" height="588px" preserveAspectRatio="none" style="width:514px;height:588px;background:#FFFFFF;" version="1.1" viewBox="0 0 514 588" width="514px" zoomAndPan="magnify"><defs><filter height="300%" id="fpeuv0pjjzmos" width="300%" x="-1" y="-1"><feGaussianBlur result="blurOut" stdDeviation="2.0"/><feColorMatrix in="blurOut" result="blurOut2" type="matrix" values="0 0 0 0 0 0 0 0 0 0 0 0 0 0 0 0 0 0 .4 0"/><feOffset dx="4.0" dy="4.0" in="blurOut2" result="blurOut3"/><feBlend in="SourceGraphic" in2="blurOut3" mode="normal"/></filter></defs><g><line style="stroke:#A80036;stroke-width:1.0;stroke-dasharray:5.0,5.0;" x1="23" x2="23" y1="88.4883" y2="503.5254"/><line style="stroke:#A80036;stroke-width:1.0;stroke-dasharray:5.0,5.0;" x1="164" x2="164" y1="88.4883" y2="503.5254"/><line style="stroke:#A80036;stroke-width:1.0;stroke-dasharray:5.0,5.0;" x1="279" x2="279" y1="88.4883" y2="503.5254"/><line style="stroke:#A80036;stroke-width:1.0;stroke-dasharray:5.0,5.0;" x1="469" x2="469" y1="88.4883" y2="503.5254"/><text fill="#000000" font-family="sans-serif" font-size="14" lengthAdjust="spacing" textLength="31" x="5" y="85.5352">User</text><ellipse cx="23.5" cy="15" fill="#FEFECE" filter="url(#fpeuv0pjjzmos)" rx="8" ry="8" style="stroke:#A80036;stroke-width:2.0;"/><path d="M23.5,23 L23.5,50 M10.5,31 L36.5,31 M23.5,50 L10.5,65 M23.5,50 L36.5,65 " fill="none" filter="url(#fpeuv0pjjzmos)" style="stroke:#A80036;stroke-width:2.0;"/><text fill="#000000" font-family="sans-serif" font-size="14" lengthAdjust="spacing" textLength="31" x="5" y="516.0605">User</text><ellipse cx="23.5" cy="529.0137" fill="#FEFECE" filter="url(#fpeuv0pjjzmos)" rx="8" ry="8" style="stroke:#A80036;stroke-width:2.0;"/><path d="M23.5,537.0137 L23.5,564.0137 M10.5,545.0137 L36.5,545.0137 M23.5,564.0137 L10.5,579.0137 M23.5,564.0137 L36.5,579.0137 " fill="none" filter="url(#fpeuv0pjjzmos)" style="stroke:#A80036;stroke-width:2.0;"/><rect fill="#FEFECE" filter="url(#fpeuv0pjjzmos)" height="30.4883" style="stroke:#A80036;stroke-width:1.5;" width="129" x="98" y="53"/><text fill="#000000" font-family="sans-serif" font-size="14" lengthAdjust="spacing" textLength="115" x="105" y="73.5352">Identity Manager</text><rect fill="#FEFECE" filter="url(#fpeuv0pjjzmos)" height="30.4883" style="stroke:#A80036;stroke-width:1.5;" width="129" x="98" y="502.5254"/><text fill="#000000" font-family="sans-serif" font-size="14" lengthAdjust="spacing" textLength="115" x="105" y="523.0605">Identity Manager</text><rect fill="#FEFECE" filter="url(#fpeuv0pjjzmos)" height="30.4883" style="stroke:#A80036;stroke-width:1.5;" width="72" x="241" y="53"/><text fill="#000000" font-family="sans-serif" font-size="14" lengthAdjust="spacing" textLength="58" x="248" y="73.5352">Platform</text><rect fill="#FEFECE" filter="url(#fpeuv0pjjzmos)" height="30.4883" style="stroke:#A80036;stroke-width:1.5;" width="72" x="241" y="502.5254"/><text fill="#000000" font-family="sans-serif" font-size="14" lengthAdjust="spacing" textLength="58" x="248" y="523.0605">Platform</text><rect fill="#FEFECE" filter="url(#fpeuv0pjjzmos)" height="30.4883" style="stroke:#A80036;stroke-width:1.5;" width="62" x="436" y="53"/><text fill="#000000" font-family="sans-serif" font-size="14" lengthAdjust="spacing" textLength="48" x="443" y="73.5352">Service</text><rect fill="#FEFECE" filter="url(#fpeuv0pjjzmos)" height="30.4883" style="stroke:#A80036;stroke-width:1.5;" width="62" x="436" y="502.5254"/><text fill="#000000" font-family="sans-serif" font-size="14" lengthAdjust="spacing" textLength="48" x="443" y="523.0605">Service</text><polygon fill="#A80036" points="267,115.7988,277,119.7988,267,123.7988,271,119.7988" style="stroke:#A80036;stroke-width:1.0;"/><line style="stroke:#A80036;stroke-width:1.0;" x1="23.5" x2="273" y1="119.7988" y2="119.7988"/><text fill="#000000" font-family="sans-serif" font-size="13" lengthAdjust="spacing" textLength="161" x="30.5" y="115.0566">Request access to Service</text><polygon fill="#A80036" points="290,145.1094,280,149.1094,290,153.1094,286,149.1094" style="stroke:#A80036;stroke-width:1.0;"/><polygon fill="#A80036" points="457,145.1094,467,149.1094,457,153.1094,461,149.1094" style="stroke:#A80036;stroke-width:1.0;"/><line style="stroke:#A80036;stroke-width:1.0;stroke-dasharray:2.0,2.0;" x1="284" x2="463" y1="149.1094" y2="149.1094"/><text fill="#000000" font-family="sans-serif" font-size="13" lengthAdjust="spacing" textLength="70" x="296" y="144.3672">Handshake</text><polygon fill="#A80036" points="457,174.4199,467,178.4199,457,182.4199,461,178.4199" style="stroke:#A80036;stroke-width:1.0;"/><line style="stroke:#A80036;stroke-width:1.0;" x1="279" x2="463" y1="178.4199" y2="178.4199"/><text fill="#000000" font-family="sans-serif" font-size="13" lengthAdjust="spacing" textLength="157" x="286" y="173.6777">Provide Public Certificate</text><polygon fill="#A80036" points="34.5,203.7305,24.5,207.7305,34.5,211.7305,30.5,207.7305" style="stroke:#A80036;stroke-width:1.0;"/><line style="stroke:#A80036;stroke-width:1.0;" x1="28.5" x2="468" y1="207.7305" y2="207.7305"/><text fill="#000000" font-family="sans-serif" font-size="13" lengthAdjust="spacing" textLength="121" x="40.5" y="202.9883">Show QR Challenge</text><polygon fill="#A80036" points="152.5,233.041,162.5,237.041,152.5,241.041,156.5,237.041" style="stroke:#A80036;stroke-width:1.0;"/><line style="stroke:#A80036;stroke-width:1.0;" x1="23.5" x2="158.5" y1="237.041" y2="237.041"/><text fill="#000000" font-family="sans-serif" font-size="13" lengthAdjust="spacing" textLength="117" x="30.5" y="232.2988">Scan QR Challenge</text><polygon fill="#A80036" points="457,262.3516,467,266.3516,457,270.3516,461,266.3516" style="stroke:#A80036;stroke-width:1.0;"/><line style="stroke:#A80036;stroke-width:1.0;" x1="164.5" x2="463" y1="266.3516" y2="266.3516"/><text fill="#000000" font-family="sans-serif" font-size="13" lengthAdjust="spacing" textLength="112" x="171.5" y="261.6094">Answer Challenge</text><rect fill="#EEEEEE" filter="url(#fpeuv0pjjzmos)" height="3" style="stroke:#EEEEEE;stroke-width:1.0;" width="507" x="0" y="295.0068"/><line style="stroke:#000000;stroke-width:1.0;" x1="0" x2="507" y1="295.0068" y2="295.0068"/><line style="stroke:#000000;stroke-width:1.0;" x1="0" x2="507" y1="298.0068" y2="298.0068"/><rect fill="#EEEEEE" filter="url(#fpeuv0pjjzmos)" height="23.3105" style="stroke:#000000;stroke-width:2.0;" width="224" x="141.5" y="284.3516"/><text fill="#000000" font-family="sans-serif" font-size="13" font-weight="bold" lengthAdjust="spacing" textLength="206" x="147.5" y="300.9199">On subsequent authentication</text><polygon fill="#A80036" points="457,334.9727,467,338.9727,457,342.9727,461,338.9727" style="stroke:#A80036;stroke-width:1.0;"/><line style="stroke:#A80036;stroke-width:1.0;" x1="23.5" x2="463" y1="338.9727" y2="338.9727"/><text fill="#000000" font-family="sans-serif" font-size="13" lengthAdjust="spacing" textLength="98" x="30.5" y="334.2305">Request Access</text><polygon fill="#A80036" points="34.5,364.2832,24.5,368.2832,34.5,372.2832,30.5,368.2832" style="stroke:#A80036;stroke-width:1.0;"/><line style="stroke:#A80036;stroke-width:1.0;" x1="28.5" x2="468" y1="368.2832" y2="368.2832"/><text fill="#000000" font-family="sans-serif" font-size="13" lengthAdjust="spacing" textLength="121" x="40.5" y="363.541">Show QR Challenge</text><polygon fill="#A80036" points="152.5,393.5938,162.5,397.5938,152.5,401.5938,156.5,397.5938" style="stroke:#A80036;stroke-width:1.0;"/><line style="stroke:#A80036;stroke-width:1.0;" x1="23.5" x2="158.5" y1="397.5938" y2="397.5938"/><text fill="#000000" font-family="sans-serif" font-size="13" lengthAdjust="spacing" textLength="117" x="30.5" y="392.8516">Scan QR Challenge</text><polygon fill="#A80036" points="457,422.9043,467,426.9043,457,430.9043,461,426.9043" style="stroke:#A80036;stroke-width:1.0;"/><line style="stroke:#A80036;stroke-width:1.0;" x1="164.5" x2="463" y1="426.9043" y2="426.9043"/><text fill="#000000" font-family="sans-serif" font-size="13" lengthAdjust="spacing" textLength="112" x="171.5" y="422.1621">Answer Challenge</text><polygon fill="#A80036" points="290,452.2148,280,456.2148,290,460.2148,286,456.2148" style="stroke:#A80036;stroke-width:1.0;"/><line style="stroke:#A80036;stroke-width:1.0;" x1="284" x2="468" y1="456.2148" y2="456.2148"/><text fill="#000000" font-family="sans-serif" font-size="13" lengthAdjust="spacing" textLength="131" x="296" y="451.4727">Check for revocation</text><polygon fill="#A80036" points="457,481.5254,467,485.5254,457,489.5254,461,485.5254" style="stroke:#A80036;stroke-width:1.0;"/><line style="stroke:#A80036;stroke-width:1.0;" x1="279" x2="463" y1="485.5254" y2="485.5254"/><text fill="#000000" font-family="sans-serif" font-size="13" lengthAdjust="spacing" textLength="166" x="286" y="480.7832">Provides revocation status</text><!--MD5=[89fc629dcb1ebc413183e27be0ac7a40]
@startuml

actor "User" as user
participant "Identity Manager" as im
participant Platform as plat
participant Service as serv

user -> plat: Request access to Service
plat <- -> serv: Handshake
plat -> serv: Provide Public Certificate
serv -> user: Show QR Challenge
user -> im: Scan QR Challenge
im -> serv: Answer Challenge

== On subsequent authentication ==

user -> serv: Request Access
serv -> user: Show QR Challenge
user -> im: Scan QR Challenge
im -> serv: Answer Challenge
serv -> plat: Check for revocation
plat -> serv: Provides revocation status
@enduml

PlantUML version 1.2021.16(Wed Dec 08 17:25:22 GMT 2021)
(GPL source distribution)
Java Runtime: OpenJDK Runtime Environment
JVM: OpenJDK 64-Bit Server VM
Default Encoding: UTF-8
Language: en
Country: GB
--></g></svg>