<?xml version="1.0" encoding="UTF-8" standalone="no"?><svg xmlns="http://www.w3.org/2000/svg" xmlns:xlink="http://www.w3.org/1999/xlink" contentScriptType="application/ecmascript" contentStyleType="text/css" height="453px" preserveAspectRatio="none" style="width:647px;height:453px;background:#FFFFFF;" version="1.1" viewBox="0 0 647 453" width="647px" zoomAndPan="magnify"><defs><filter height="300%" id="f1me7ya83ia7h7" width="300%" x="-1" y="-1"><feGaussianBlur result="blurOut" stdDeviation="2.0"/><feColorMatrix in="blurOut" result="blurOut2" type="matrix" values="0 0 0 0 0 0 0 0 0 0 0 0 0 0 0 0 0 0 .4 0"/><feOffset dx="4.0" dy="4.0" in="blurOut2" result="blurOut3"/><feBlend in="SourceGraphic" in2="blurOut3" mode="normal"/></filter></defs><g><rect fill="#FFFFFF" filter="url(#f1me7ya83ia7h7)" height="202.8633" style="stroke:#A80036;stroke-width:1.0;" width="10" x="269.5" y="157.1094"/><line style="stroke:#A80036;stroke-width:1.0;stroke-dasharray:5.0,5.0;" x1="23" x2="23" y1="88.4883" y2="368.9727"/><line style="stroke:#A80036;stroke-width:1.0;stroke-dasharray:5.0,5.0;" x1="164" x2="164" y1="88.4883" y2="368.9727"/><line style="stroke:#A80036;stroke-width:1.0;stroke-dasharray:5.0,5.0;" x1="274.5" x2="274.5" y1="88.4883" y2="368.9727"/><line style="stroke:#A80036;stroke-width:1.0;stroke-dasharray:5.0,5.0;" x1="538.5" x2="538.5" y1="88.4883" y2="368.9727"/><text fill="#000000" font-family="sans-serif" font-size="14" lengthAdjust="spacing" textLength="31" x="5" y="85.5352">User</text><ellipse cx="23.5" cy="15" fill="#FEFECE" filter="url(#f1me7ya83ia7h7)" rx="8" ry="8" style="stroke:#A80036;stroke-width:2.0;"/><path d="M23.5,23 L23.5,50 M10.5,31 L36.5,31 M23.5,50 L10.5,65 M23.5,50 L36.5,65 " fill="none" filter="url(#f1me7ya83ia7h7)" style="stroke:#A80036;stroke-width:2.0;"/><text fill="#000000" font-family="sans-serif" font-size="14" lengthAdjust="spacing" textLength="31" x="5" y="381.5078">User</text><ellipse cx="23.5" cy="394.4609" fill="#FEFECE" filter="url(#f1me7ya83ia7h7)" rx="8" ry="8" style="stroke:#A80036;stroke-width:2.0;"/><path d="M23.5,402.4609 L23.5,429.4609 M10.5,410.4609 L36.5,410.4609 M23.5,429.4609 L10.5,444.4609 M23.5,429.4609 L36.5,444.4609 " fill="none" filter="url(#f1me7ya83ia7h7)" style="stroke:#A80036;stroke-width:2.0;"/><rect fill="#FEFECE" filter="url(#f1me7ya83ia7h7)" height="30.4883" style="stroke:#A80036;stroke-width:1.5;" width="129" x="98" y="53"/><text fill="#000000" font-family="sans-serif" font-size="14" lengthAdjust="spacing" textLength="115" x="105" y="73.5352">Identity Manager</text><rect fill="#FEFECE" filter="url(#f1me7ya83ia7h7)" height="30.4883" style="stroke:#A80036;stroke-width:1.5;" width="129" x="98" y="367.9727"/><text fill="#000000" font-family="sans-serif" font-size="14" lengthAdjust="spacing" textLength="115" x="105" y="388.5078">Identity Manager</text><rect fill="#FEFECE" filter="url(#f1me7ya83ia7h7)" height="30.4883" style="stroke:#A80036;stroke-width:1.5;" width="58" x="243.5" y="53"/><text fill="#000000" font-family="sans-serif" font-size="14" lengthAdjust="spacing" textLength="44" x="250.5" y="73.5352">Device</text><rect fill="#FEFECE" filter="url(#f1me7ya83ia7h7)" height="30.4883" style="stroke:#A80036;stroke-width:1.5;" width="58" x="243.5" y="367.9727"/><text fill="#000000" font-family="sans-serif" font-size="14" lengthAdjust="spacing" textLength="44" x="250.5" y="388.5078">Device</text><rect fill="#FEFECE" filter="url(#f1me7ya83ia7h7)" height="30.4883" style="stroke:#A80036;stroke-width:1.5;" width="72" x="500.5" y="53"/><text fill="#000000" font-family="sans-serif" font-size="14" lengthAdjust="spacing" textLength="58" x="507.5" y="73.5352">Platform</text><rect fill="#FEFECE" filter="url(#f1me7ya83ia7h7)" height="30.4883" style="stroke:#A80036;stroke-width:1.5;" width="72" x="500.5" y="367.9727"/><text fill="#000000" font-family="sans-serif" font-size="14" lengthAdjust="spacing" textLength="58" x="507.5" y="388.5078">Platform</text><rect fill="#FFFFFF" filter="url(#f1me7ya83ia7h7)" height="202.8633" style="stroke:#A80036;stroke-width:1.0;" width="10" x="269.5" y="157.1094"/><polygon fill="#A80036" points="262.5,115.7988,272.5,119.7988,262.5,123.7988,266.5,119.7988" style="stroke:#A80036;stroke-width:1.0;"/><line style="stroke:#A80036;stroke-width:1.0;" x1="23.5" x2="268.5" y1="119.7988" y2="119.7988"/><text fill="#000000" font-family="sans-serif" font-size="13" lengthAdjust="spacing" textLength="227" x="30.5" y="115.0566">Request create Intermediate Identity</text><line style="stroke:#A80036;stroke-width:1.0;" x1="274.5" x2="321.5" y1="144.1094" y2="144.1094"/><line style="stroke:#A80036;stroke-width:1.0;" x1="321.5" x2="321.5" y1="144.1094" y2="157.1094"/><line style="stroke:#A80036;stroke-width:1.0;" x1="280.5" x2="321.5" y1="157.1094" y2="157.1094"/><polygon fill="#A80036" points="290.5,153.1094,280.5,157.1094,290.5,161.1094,286.5,157.1094" style="stroke:#A80036;stroke-width:1.0;"/><text fill="#000000" font-family="sans-serif" font-size="13" lengthAdjust="spacing" textLength="250" x="286.5" y="139.3672">Create Private Document and Public Key</text><polygon fill="#A80036" points="526.5,187.4199,536.5,191.4199,526.5,195.4199,530.5,191.4199" style="stroke:#A80036;stroke-width:1.0;"/><line style="stroke:#A80036;stroke-width:1.0;" x1="279.5" x2="532.5" y1="191.4199" y2="191.4199"/><text fill="#000000" font-family="sans-serif" font-size="13" lengthAdjust="spacing" textLength="186" x="286.5" y="186.6777">Request signing of Public Key</text><line style="stroke:#A80036;stroke-width:1.0;" x1="538.5" x2="580.5" y1="220.7305" y2="220.7305"/><line style="stroke:#A80036;stroke-width:1.0;" x1="580.5" x2="580.5" y1="220.7305" y2="233.7305"/><line style="stroke:#A80036;stroke-width:1.0;" x1="539.5" x2="580.5" y1="233.7305" y2="233.7305"/><polygon fill="#A80036" points="549.5,229.7305,539.5,233.7305,549.5,237.7305,545.5,233.7305" style="stroke:#A80036;stroke-width:1.0;"/><text fill="#000000" font-family="sans-serif" font-size="13" lengthAdjust="spacing" textLength="95" x="545.5" y="215.9883">Sign Public Key</text><polygon fill="#A80036" points="34.5,259.041,24.5,263.041,34.5,267.041,30.5,263.041" style="stroke:#A80036;stroke-width:1.0;"/><line style="stroke:#A80036;stroke-width:1.0;" x1="28.5" x2="537.5" y1="263.041" y2="263.041"/><text fill="#000000" font-family="sans-serif" font-size="13" lengthAdjust="spacing" textLength="121" x="40.5" y="258.2988">Show QR Challenge</text><polygon fill="#A80036" points="152.5,288.3516,162.5,292.3516,152.5,296.3516,156.5,292.3516" style="stroke:#A80036;stroke-width:1.0;"/><line style="stroke:#A80036;stroke-width:1.0;" x1="23.5" x2="158.5" y1="292.3516" y2="292.3516"/><text fill="#000000" font-family="sans-serif" font-size="13" lengthAdjust="spacing" textLength="117" x="30.5" y="287.6094">Scan QR Challenge</text><polygon fill="#A80036" points="526.5,317.6621,536.5,321.6621,526.5,325.6621,530.5,321.6621" style="stroke:#A80036;stroke-width:1.0;"/><line style="stroke:#A80036;stroke-width:1.0;" x1="164.5" x2="532.5" y1="321.6621" y2="321.6621"/><text fill="#000000" font-family="sans-serif" font-size="13" lengthAdjust="spacing" textLength="112" x="171.5" y="316.9199">Answer Challenge</text><polygon fill="#A80036" points="290.5,346.9727,280.5,350.9727,290.5,354.9727,286.5,350.9727" style="stroke:#A80036;stroke-width:1.0;"/><line style="stroke:#A80036;stroke-width:1.0;" x1="284.5" x2="537.5" y1="350.9727" y2="350.9727"/><text fill="#000000" font-family="sans-serif" font-size="13" lengthAdjust="spacing" textLength="222" x="296.5" y="346.2305">Return completed Public Certificate</text><!--MD5=[cb5fc909c6330457271abe5f2bfd1c93]
@startuml

actor "User" as user
participant "Identity Manager" as im
participant Device as dev
participant Platform as plat


user -> dev: Request create Intermediate Identity
dev -> dev ++: Create Private Document and Public Key
dev -> plat: Request signing of Public Key
plat -> plat: Sign Public Key
plat -> user: Show QR Challenge
user -> im: Scan QR Challenge
im -> plat: Answer Challenge
plat -> dev - -: Return completed Public Certificate

@enduml

PlantUML version 1.2021.16(Wed Dec 08 17:25:22 GMT 2021)
(GPL source distribution)
Java Runtime: OpenJDK Runtime Environment
JVM: OpenJDK 64-Bit Server VM
Default Encoding: UTF-8
Language: en
Country: GB
--></g></svg>