<?xml version="1.0" encoding="UTF-8" standalone="no"?><svg xmlns="http://www.w3.org/2000/svg" xmlns:xlink="http://www.w3.org/1999/xlink" contentScriptType="application/ecmascript" contentStyleType="text/css" height="512px" preserveAspectRatio="none" style="width:676px;height:512px;background:#FFFFFF;" version="1.1" viewBox="0 0 676 512" width="676px" zoomAndPan="magnify"><defs><filter height="300%" id="foy1cu55wqakh" width="300%" x="-1" y="-1"><feGaussianBlur result="blurOut" stdDeviation="2.0"/><feColorMatrix in="blurOut" result="blurOut2" type="matrix" values="0 0 0 0 0 0 0 0 0 0 0 0 0 0 0 0 0 0 .4 0"/><feOffset dx="4.0" dy="4.0" in="blurOut2" result="blurOut3"/><feBlend in="SourceGraphic" in2="blurOut3" mode="normal"/></filter></defs><g><rect fill="#FFFFFF" filter="url(#foy1cu55wqakh)" height="261.4844" style="stroke:#A80036;stroke-width:1.0;" width="10" x="298" y="157.1094"/><line style="stroke:#A80036;stroke-width:1.0;stroke-dasharray:5.0,5.0;" x1="23" x2="23" y1="88.4883" y2="427.5938"/><line style="stroke:#A80036;stroke-width:1.0;stroke-dasharray:5.0,5.0;" x1="195" x2="195" y1="88.4883" y2="427.5938"/><line style="stroke:#A80036;stroke-width:1.0;stroke-dasharray:5.0,5.0;" x1="303" x2="303" y1="88.4883" y2="427.5938"/><line style="stroke:#A80036;stroke-width:1.0;stroke-dasharray:5.0,5.0;" x1="567" x2="567" y1="88.4883" y2="427.5938"/><text fill="#000000" font-family="sans-serif" font-size="14" lengthAdjust="spacing" textLength="31" x="5" y="85.5352">User</text><ellipse cx="23.5" cy="15" fill="#FEFECE" filter="url(#foy1cu55wqakh)" rx="8" ry="8" style="stroke:#A80036;stroke-width:2.0;"/><path d="M23.5,23 L23.5,50 M10.5,31 L36.5,31 M23.5,50 L10.5,65 M23.5,50 L36.5,65 " fill="none" filter="url(#foy1cu55wqakh)" style="stroke:#A80036;stroke-width:2.0;"/><text fill="#000000" font-family="sans-serif" font-size="14" lengthAdjust="spacing" textLength="31" x="5" y="440.1289">User</text><ellipse cx="23.5" cy="453.082" fill="#FEFECE" filter="url(#foy1cu55wqakh)" rx="8" ry="8" style="stroke:#A80036;stroke-width:2.0;"/><path d="M23.5,461.082 L23.5,488.082 M10.5,469.082 L36.5,469.082 M23.5,488.082 L10.5,503.082 M23.5,488.082 L36.5,503.082 " fill="none" filter="url(#foy1cu55wqakh)" style="stroke:#A80036;stroke-width:2.0;"/><rect fill="#FEFECE" filter="url(#foy1cu55wqakh)" height="30.4883" style="stroke:#A80036;stroke-width:1.5;" width="129" x="129" y="53"/><text fill="#000000" font-family="sans-serif" font-size="14" lengthAdjust="spacing" textLength="115" x="136" y="73.5352">Identity Manager</text><rect fill="#FEFECE" filter="url(#foy1cu55wqakh)" height="30.4883" style="stroke:#A80036;stroke-width:1.5;" width="129" x="129" y="426.5938"/><text fill="#000000" font-family="sans-serif" font-size="14" lengthAdjust="spacing" textLength="115" x="136" y="447.1289">Identity Manager</text><rect fill="#FEFECE" filter="url(#foy1cu55wqakh)" height="30.4883" style="stroke:#A80036;stroke-width:1.5;" width="58" x="272" y="53"/><text fill="#000000" font-family="sans-serif" font-size="14" lengthAdjust="spacing" textLength="44" x="279" y="73.5352">Device</text><rect fill="#FEFECE" filter="url(#foy1cu55wqakh)" height="30.4883" style="stroke:#A80036;stroke-width:1.5;" width="58" x="272" y="426.5938"/><text fill="#000000" font-family="sans-serif" font-size="14" lengthAdjust="spacing" textLength="44" x="279" y="447.1289">Device</text><rect fill="#FEFECE" filter="url(#foy1cu55wqakh)" height="30.4883" style="stroke:#A80036;stroke-width:1.5;" width="72" x="529" y="53"/><text fill="#000000" font-family="sans-serif" font-size="14" lengthAdjust="spacing" textLength="58" x="536" y="73.5352">Platform</text><rect fill="#FEFECE" filter="url(#foy1cu55wqakh)" height="30.4883" style="stroke:#A80036;stroke-width:1.5;" width="72" x="529" y="426.5938"/><text fill="#000000" font-family="sans-serif" font-size="14" lengthAdjust="spacing" textLength="58" x="536" y="447.1289">Platform</text><rect fill="#FFFFFF" filter="url(#foy1cu55wqakh)" height="261.4844" style="stroke:#A80036;stroke-width:1.0;" width="10" x="298" y="157.1094"/><polygon fill="#A80036" points="291,115.7988,301,119.7988,291,123.7988,295,119.7988" style="stroke:#A80036;stroke-width:1.0;"/><line style="stroke:#A80036;stroke-width:1.0;" x1="23.5" x2="297" y1="119.7988" y2="119.7988"/><text fill="#000000" font-family="sans-serif" font-size="13" lengthAdjust="spacing" textLength="227" x="30.5" y="115.0566">Request create Intermediate Identity</text><line style="stroke:#A80036;stroke-width:1.0;" x1="303" x2="350" y1="144.1094" y2="144.1094"/><line style="stroke:#A80036;stroke-width:1.0;" x1="350" x2="350" y1="144.1094" y2="157.1094"/><line style="stroke:#A80036;stroke-width:1.0;" x1="309" x2="350" y1="157.1094" y2="157.1094"/><polygon fill="#A80036" points="319,153.1094,309,157.1094,319,161.1094,315,157.1094" style="stroke:#A80036;stroke-width:1.0;"/><text fill="#000000" font-family="sans-serif" font-size="13" lengthAdjust="spacing" textLength="250" x="315" y="139.3672">Create Private Document and Public Key</text><polygon fill="#A80036" points="555,187.4199,565,191.4199,555,195.4199,559,191.4199" style="stroke:#A80036;stroke-width:1.0;"/><line style="stroke:#A80036;stroke-width:1.0;" x1="308" x2="561" y1="191.4199" y2="191.4199"/><text fill="#000000" font-family="sans-serif" font-size="13" lengthAdjust="spacing" textLength="186" x="315" y="186.6777">Request signing of Public Key</text><line style="stroke:#A80036;stroke-width:1.0;" x1="567" x2="609" y1="220.7305" y2="220.7305"/><line style="stroke:#A80036;stroke-width:1.0;" x1="609" x2="609" y1="220.7305" y2="233.7305"/><line style="stroke:#A80036;stroke-width:1.0;" x1="568" x2="609" y1="233.7305" y2="233.7305"/><polygon fill="#A80036" points="578,229.7305,568,233.7305,578,237.7305,574,233.7305" style="stroke:#A80036;stroke-width:1.0;"/><text fill="#000000" font-family="sans-serif" font-size="13" lengthAdjust="spacing" textLength="95" x="574" y="215.9883">Sign Public Key</text><polygon fill="#A80036" points="34.5,259.041,24.5,263.041,34.5,267.041,30.5,263.041" style="stroke:#A80036;stroke-width:1.0;"/><line style="stroke:#A80036;stroke-width:1.0;" x1="28.5" x2="566" y1="263.041" y2="263.041"/><text fill="#000000" font-family="sans-serif" font-size="13" lengthAdjust="spacing" textLength="121" x="40.5" y="258.2988">Show QR Challenge</text><polygon fill="#A80036" points="183.5,288.3516,193.5,292.3516,183.5,296.3516,187.5,292.3516" style="stroke:#A80036;stroke-width:1.0;"/><line style="stroke:#A80036;stroke-width:1.0;" x1="23.5" x2="189.5" y1="292.3516" y2="292.3516"/><text fill="#000000" font-family="sans-serif" font-size="13" lengthAdjust="spacing" textLength="117" x="30.5" y="287.6094">Scan QR Challenge</text><polygon fill="#A80036" points="34.5,317.6621,24.5,321.6621,34.5,325.6621,30.5,321.6621" style="stroke:#A80036;stroke-width:1.0;"/><line style="stroke:#A80036;stroke-width:1.0;" x1="28.5" x2="194.5" y1="321.6621" y2="321.6621"/><text fill="#000000" font-family="sans-serif" font-size="13" lengthAdjust="spacing" textLength="148" x="40.5" y="316.9199">Show Certificate details</text><polygon fill="#A80036" points="183.5,346.9727,193.5,350.9727,183.5,354.9727,187.5,350.9727" style="stroke:#A80036;stroke-width:1.0;"/><line style="stroke:#A80036;stroke-width:1.0;" x1="23.5" x2="189.5" y1="350.9727" y2="350.9727"/><text fill="#000000" font-family="sans-serif" font-size="13" lengthAdjust="spacing" textLength="97" x="30.5" y="346.2305">Confirm details</text><polygon fill="#A80036" points="555,376.2832,565,380.2832,555,384.2832,559,380.2832" style="stroke:#A80036;stroke-width:1.0;"/><line style="stroke:#A80036;stroke-width:1.0;" x1="195.5" x2="561" y1="380.2832" y2="380.2832"/><text fill="#000000" font-family="sans-serif" font-size="13" lengthAdjust="spacing" textLength="141" x="202.5" y="375.541">Provide final signature</text><polygon fill="#A80036" points="319,405.5938,309,409.5938,319,413.5938,315,409.5938" style="stroke:#A80036;stroke-width:1.0;"/><line style="stroke:#A80036;stroke-width:1.0;" x1="313" x2="566" y1="409.5938" y2="409.5938"/><text fill="#000000" font-family="sans-serif" font-size="13" lengthAdjust="spacing" textLength="222" x="325" y="404.8516">Return completed Public Certificate</text><!--MD5=[cb305af0032992016bc9480819ccba74]
@startuml

actor "User" as user
participant "Identity Manager" as im
participant Device as dev
participant Platform as plat


user -> dev: Request create Intermediate Identity
dev -> dev ++: Create Private Document and Public Key
dev -> plat: Request signing of Public Key
plat -> plat: Sign Public Key
plat -> user: Show QR Challenge
user -> im: Scan QR Challenge
im -> user: Show Certificate details
user -> im: Confirm details
im -> plat: Provide final signature
plat -> dev - -: Return completed Public Certificate

@enduml

PlantUML version 1.2021.16(Wed Dec 08 17:25:22 GMT 2021)
(GPL source distribution)
Java Runtime: OpenJDK Runtime Environment
JVM: OpenJDK 64-Bit Server VM
Default Encoding: UTF-8
Language: en
Country: GB
--></g></svg>