<?xml version="1.0" encoding="UTF-8" standalone="no"?><svg xmlns="http://www.w3.org/2000/svg" xmlns:xlink="http://www.w3.org/1999/xlink" contentScriptType="application/ecmascript" contentStyleType="text/css" height="642px" preserveAspectRatio="none" style="width:612px;height:642px;background:#FFFFFF;" version="1.1" viewBox="0 0 612 642" width="612px" zoomAndPan="magnify"><defs><filter height="300%" id="fvkk5g136atum" width="300%" x="-1" y="-1"><feGaussianBlur result="blurOut" stdDeviation="2.0"/><feColorMatrix in="blurOut" result="blurOut2" type="matrix" values="0 0 0 0 0 0 0 0 0 0 0 0 0 0 0 0 0 0 .4 0"/><feOffset dx="4.0" dy="4.0" in="blurOut2" result="blurOut3"/><feBlend in="SourceGraphic" in2="blurOut3" mode="normal"/></filter></defs><g><line style="stroke:#A80036;stroke-width:1.0;stroke-dasharray:5.0,5.0;" x1="231" x2="231" y1="88.4883" y2="558.1465"/><line style="stroke:#A80036;stroke-width:1.0;stroke-dasharray:5.0,5.0;" x1="372" x2="372" y1="88.4883" y2="558.1465"/><line style="stroke:#A80036;stroke-width:1.0;stroke-dasharray:5.0,5.0;" x1="562.5" x2="562.5" y1="88.4883" y2="558.1465"/><text fill="#000000" font-family="sans-serif" font-size="14" lengthAdjust="spacing" textLength="31" x="213" y="85.5352">User</text><ellipse cx="231.5" cy="15" fill="#FEFECE" filter="url(#fvkk5g136atum)" rx="8" ry="8" style="stroke:#A80036;stroke-width:2.0;"/><path d="M231.5,23 L231.5,50 M218.5,31 L244.5,31 M231.5,50 L218.5,65 M231.5,50 L244.5,65 " fill="none" filter="url(#fvkk5g136atum)" style="stroke:#A80036;stroke-width:2.0;"/><text fill="#000000" font-family="sans-serif" font-size="14" lengthAdjust="spacing" textLength="31" x="213" y="570.6816">User</text><ellipse cx="231.5" cy="583.6348" fill="#FEFECE" filter="url(#fvkk5g136atum)" rx="8" ry="8" style="stroke:#A80036;stroke-width:2.0;"/><path d="M231.5,591.6348 L231.5,618.6348 M218.5,599.6348 L244.5,599.6348 M231.5,618.6348 L218.5,633.6348 M231.5,618.6348 L244.5,633.6348 " fill="none" filter="url(#fvkk5g136atum)" style="stroke:#A80036;stroke-width:2.0;"/><rect fill="#FEFECE" filter="url(#fvkk5g136atum)" height="30.4883" style="stroke:#A80036;stroke-width:1.5;" width="129" x="306" y="53"/><text fill="#000000" font-family="sans-serif" font-size="14" lengthAdjust="spacing" textLength="115" x="313" y="73.5352">Identity Manager</text><rect fill="#FEFECE" filter="url(#fvkk5g136atum)" height="30.4883" style="stroke:#A80036;stroke-width:1.5;" width="129" x="306" y="557.1465"/><text fill="#000000" font-family="sans-serif" font-size="14" lengthAdjust="spacing" textLength="115" x="313" y="577.6816">Identity Manager</text><rect fill="#FEFECE" filter="url(#fvkk5g136atum)" height="30.4883" style="stroke:#A80036;stroke-width:1.5;" width="72" x="524.5" y="53"/><text fill="#000000" font-family="sans-serif" font-size="14" lengthAdjust="spacing" textLength="58" x="531.5" y="73.5352">Platform</text><rect fill="#FEFECE" filter="url(#fvkk5g136atum)" height="30.4883" style="stroke:#A80036;stroke-width:1.5;" width="72" x="524.5" y="557.1465"/><text fill="#000000" font-family="sans-serif" font-size="14" lengthAdjust="spacing" textLength="58" x="531.5" y="577.6816">Platform</text><rect fill="#EEEEEE" filter="url(#fvkk5g136atum)" height="3" style="stroke:#EEEEEE;stroke-width:1.0;" width="605.5" x="0" y="119.1436"/><line style="stroke:#000000;stroke-width:1.0;" x1="0" x2="605.5" y1="119.1436" y2="119.1436"/><line style="stroke:#000000;stroke-width:1.0;" x1="0" x2="605.5" y1="122.1436" y2="122.1436"/><rect fill="#EEEEEE" filter="url(#fvkk5g136atum)" height="23.3105" style="stroke:#000000;stroke-width:2.0;" width="147" x="229.25" y="108.4883"/><text fill="#000000" font-family="sans-serif" font-size="13" font-weight="bold" lengthAdjust="spacing" textLength="129" x="235.25" y="125.0566">Using Root Identity</text><polygon fill="#A80036" points="550.5,179.4199,560.5,183.4199,550.5,187.4199,554.5,183.4199" style="stroke:#A80036;stroke-width:1.0;"/><line style="stroke:#A80036;stroke-width:1.0;" x1="231.5" x2="556.5" y1="183.4199" y2="183.4199"/><text fill="#000000" font-family="sans-serif" font-size="13" lengthAdjust="spacing" textLength="175" x="238.5" y="178.6777">Request login via certificate</text><path d="M5,146.7988 L5,201.7988 L223,201.7988 L223,156.7988 L213,146.7988 L5,146.7988 " fill="#FBFB77" filter="url(#fvkk5g136atum)" style="stroke:#A80036;stroke-width:1.0;"/><path d="M213,146.7988 L213,156.7988 L223,156.7988 L213,146.7988 " fill="#FBFB77" style="stroke:#A80036;stroke-width:1.0;"/><text fill="#000000" font-family="sans-serif" font-size="13" lengthAdjust="spacing" textLength="197" x="11" y="164.3672">This method is less likely to be</text><text fill="#000000" font-family="sans-serif" font-size="13" lengthAdjust="spacing" textLength="194" x="11" y="179.6777">used as the user may have lost</text><text fill="#000000" font-family="sans-serif" font-size="13" lengthAdjust="spacing" textLength="180" x="11" y="194.9883">access to the root certificate</text><polygon fill="#A80036" points="242.5,229.041,232.5,233.041,242.5,237.041,238.5,233.041" style="stroke:#A80036;stroke-width:1.0;"/><line style="stroke:#A80036;stroke-width:1.0;" x1="236.5" x2="561.5" y1="233.041" y2="233.041"/><text fill="#000000" font-family="sans-serif" font-size="13" lengthAdjust="spacing" textLength="121" x="248.5" y="228.2988">Show QR Challenge</text><polygon fill="#A80036" points="360.5,258.3516,370.5,262.3516,360.5,266.3516,364.5,262.3516" style="stroke:#A80036;stroke-width:1.0;"/><line style="stroke:#A80036;stroke-width:1.0;" x1="231.5" x2="366.5" y1="262.3516" y2="262.3516"/><text fill="#000000" font-family="sans-serif" font-size="13" lengthAdjust="spacing" textLength="117" x="238.5" y="257.6094">Scan QR Challenge</text><polygon fill="#A80036" points="550.5,287.6621,560.5,291.6621,550.5,295.6621,554.5,291.6621" style="stroke:#A80036;stroke-width:1.0;"/><line style="stroke:#A80036;stroke-width:1.0;" x1="372.5" x2="556.5" y1="291.6621" y2="291.6621"/><text fill="#000000" font-family="sans-serif" font-size="13" lengthAdjust="spacing" textLength="112" x="379.5" y="286.9199">Answer Challenge</text><polygon fill="#A80036" points="550.5,316.9727,560.5,320.9727,550.5,324.9727,554.5,320.9727" style="stroke:#A80036;stroke-width:1.0;"/><line style="stroke:#A80036;stroke-width:1.0;" x1="231.5" x2="556.5" y1="320.9727" y2="320.9727"/><text fill="#000000" font-family="sans-serif" font-size="13" lengthAdjust="spacing" textLength="219" x="238.5" y="316.2305">Get list of Intermediate certificates</text><polygon fill="#A80036" points="242.5,346.2832,232.5,350.2832,242.5,354.2832,238.5,350.2832" style="stroke:#A80036;stroke-width:1.0;"/><line style="stroke:#A80036;stroke-width:1.0;" x1="236.5" x2="561.5" y1="350.2832" y2="350.2832"/><text fill="#000000" font-family="sans-serif" font-size="13" lengthAdjust="spacing" textLength="258" x="248.5" y="345.541">Show all current intermediate certificates</text><polygon fill="#A80036" points="550.5,375.5938,560.5,379.5938,550.5,383.5938,554.5,379.5938" style="stroke:#A80036;stroke-width:1.0;"/><line style="stroke:#A80036;stroke-width:1.0;" x1="231.5" x2="556.5" y1="379.5938" y2="379.5938"/><text fill="#000000" font-family="sans-serif" font-size="13" lengthAdjust="spacing" textLength="307" x="238.5" y="374.8516">User requests Intermediate Certificate be deleted</text><rect fill="#EEEEEE" filter="url(#fvkk5g136atum)" height="3" style="stroke:#EEEEEE;stroke-width:1.0;" width="605.5" x="0" y="408.249"/><line style="stroke:#000000;stroke-width:1.0;" x1="0" x2="605.5" y1="408.249" y2="408.249"/><line style="stroke:#000000;stroke-width:1.0;" x1="0" x2="605.5" y1="411.249" y2="411.249"/><rect fill="#EEEEEE" filter="url(#fvkk5g136atum)" height="23.3105" style="stroke:#000000;stroke-width:2.0;" width="223" x="191.25" y="397.5938"/><text fill="#000000" font-family="sans-serif" font-size="13" font-weight="bold" lengthAdjust="spacing" textLength="205" x="197.25" y="414.1621">Through normal login process</text><polygon fill="#A80036" points="242.5,448.2148,232.5,452.2148,242.5,456.2148,238.5,452.2148" style="stroke:#A80036;stroke-width:1.0;"/><polygon fill="#A80036" points="550.5,448.2148,560.5,452.2148,550.5,456.2148,554.5,452.2148" style="stroke:#A80036;stroke-width:1.0;"/><line style="stroke:#A80036;stroke-width:1.0;stroke-dasharray:2.0,2.0;" x1="236.5" x2="556.5" y1="452.2148" y2="452.2148"/><text fill="#000000" font-family="sans-serif" font-size="13" lengthAdjust="spacing" textLength="137" x="248.5" y="447.4727">Normal Login Process</text><polygon fill="#A80036" points="550.5,477.5254,560.5,481.5254,550.5,485.5254,554.5,481.5254" style="stroke:#A80036;stroke-width:1.0;"/><line style="stroke:#A80036;stroke-width:1.0;" x1="231.5" x2="556.5" y1="481.5254" y2="481.5254"/><text fill="#000000" font-family="sans-serif" font-size="13" lengthAdjust="spacing" textLength="219" x="238.5" y="476.7832">Get list of Intermediate certificates</text><polygon fill="#A80036" points="242.5,506.8359,232.5,510.8359,242.5,514.8359,238.5,510.8359" style="stroke:#A80036;stroke-width:1.0;"/><line style="stroke:#A80036;stroke-width:1.0;" x1="236.5" x2="561.5" y1="510.8359" y2="510.8359"/><text fill="#000000" font-family="sans-serif" font-size="13" lengthAdjust="spacing" textLength="258" x="248.5" y="506.0938">Show all current intermediate certificates</text><polygon fill="#A80036" points="550.5,536.1465,560.5,540.1465,550.5,544.1465,554.5,540.1465" style="stroke:#A80036;stroke-width:1.0;"/><line style="stroke:#A80036;stroke-width:1.0;" x1="231.5" x2="556.5" y1="540.1465" y2="540.1465"/><text fill="#000000" font-family="sans-serif" font-size="13" lengthAdjust="spacing" textLength="307" x="238.5" y="535.4043">User requests Intermediate Certificate be deleted</text><!--MD5=[ed46d8090d5b9ab39d1dd5c979b4aead]
@startuml

actor "User" as user
participant "Identity Manager" as im
participant Platform as plat

== Using Root Identity ==


user -> plat: Request login via certificate
note left
    This method is less likely to be
    used as the user may have lost
    access to the root certificate
end note
plat -> user: Show QR Challenge
user -> im: Scan QR Challenge
im -> plat: Answer Challenge
user -> plat: Get list of Intermediate certificates
plat -> user: Show all current intermediate certificates
user -> plat: User requests Intermediate Certificate be deleted

== Through normal login process ==

user <- -> plat: Normal Login Process
user -> plat: Get list of Intermediate certificates
plat -> user: Show all current intermediate certificates
user -> plat: User requests Intermediate Certificate be deleted

@enduml

PlantUML version 1.2021.16(Wed Dec 08 17:25:22 GMT 2021)
(GPL source distribution)
Java Runtime: OpenJDK Runtime Environment
JVM: OpenJDK 64-Bit Server VM
Default Encoding: UTF-8
Language: en
Country: GB
--></g></svg>